<svg fill="none" xmlns="http://www.w3.org/2000/svg" viewBox="0 0 389 483">
  <path d="M26.8352 481.049C24.9252 480.959 22.9852 481.089 21.0852 480.769C20.5952 480.689 15.9952 480.009 10.8852 479.259C5.76523 478.509 1.32523 477.629 1.01523 477.289C0.705231 476.959 5.16523 476.529 10.9252 476.319C21.9552 475.939 33.2852 473.959 44.7352 470.459C60.7852 465.559 77.0552 457.659 93.0052 446.959C116.795 433.749 132.985 410.559 147.815 388.159C166.425 355.699 180.335 319.959 192.685 284.679C200.945 252.559 218.805 222.939 241.495 199.029C241.495 199.029 247.295 192.099 250.545 190.099C271.025 177.469 312.815 170.009 326.525 164.379C337.585 159.839 346.865 147.119 352.925 135.059C357.675 125.619 357.225 124.889 349.135 128.879C345.315 130.769 336.835 133.519 330.305 134.989C319.995 137.319 318.285 137.439 317.285 135.889C314.455 131.519 316.475 129.659 327.655 126.329C345.515 121.019 356.285 114.599 360.335 106.839C361.935 103.779 365.895 89.9287 365.165 89.9287C364.955 89.9287 361.905 91.8288 358.375 94.1488C346.835 101.749 338.435 103.849 319.585 103.849C310.485 103.849 302.695 103.509 302.285 103.099C300.835 101.639 306.655 93.4587 308.725 94.0387C324.945 98.5887 348.975 92.5287 359.075 81.3487C361.355 78.8287 364.055 73.9687 365.065 70.5587C367.425 62.6187 369.855 40.1887 369.095 33.4087C368.765 30.5387 368.865 28.1887 369.305 28.1887C369.755 28.1887 374.045 31.7787 378.845 36.1587L387.575 44.1188L386.885 50.9888C383.705 82.8787 369.885 130.659 351.535 173.209C345.675 186.799 345.645 186.939 346.745 194.999C347.365 199.459 347.595 212.649 347.265 224.299C346.615 270.039 324.965 309.739 301.305 347.369C279.735 384.889 251.065 414.729 215.775 439.229C182.955 460.699 145.715 474.229 102.505 480.369C90.0952 482.129 35.4952 482.619 26.8352 481.049ZM166.375 431.729C215.695 394.789 230.315 347.959 256.295 292.599C272.395 258.539 297.055 219.259 322.185 192.459C328.115 186.119 330.635 182.609 329.815 181.799C327.245 179.219 303.535 207.959 285.285 235.799C271.385 257.009 263.195 271.549 254.275 290.879C230.625 337.209 217.395 382.459 180.005 417.729C154.505 440.569 120.005 455.339 110.735 460.699C125.875 454.749 145.505 445.109 166.375 431.729ZM250.495 187.489C247.345 186.639 241.895 184.129 238.395 181.919C222.145 171.649 215.955 168.649 207.335 166.879C202.415 165.869 198.125 164.779 197.805 164.449C197.475 164.129 199.705 161.089 202.755 157.709C210.305 149.299 215.685 134.249 215.685 121.489C215.685 114.369 212.245 103.029 208.485 97.7487L205.005 92.8587L219.725 92.9087C231.815 92.9487 235.925 92.4688 242.745 90.2288C273.905 80.0088 308.725 100.529 313.795 132.099C319.265 166.149 284.445 196.619 250.495 187.489ZM173.715 163.909C164.815 158.319 159.825 142.279 162.275 127.099C166.535 100.659 186.775 83.4687 201.665 93.6587C212.255 100.919 216.355 120.449 210.995 138.109C208.045 147.839 202.485 156.599 195.995 161.789C189.965 166.609 179.575 167.599 173.715 163.909ZM291.995 95.8487C284.555 90.4687 273.705 86.7087 262.565 85.6287C256.635 85.0587 252.505 85.5687 243.205 88.0187C234.445 90.3287 228.385 91.1387 219.785 91.1387H208.175L198.715 84.0088C193.515 80.0888 188.585 76.6587 187.755 76.3787C186.845 76.0787 188.505 73.5687 191.935 70.0387C202.985 58.6587 213.855 33.4987 215.345 15.8387L216.025 7.71874L222.475 13.2288C231.565 20.9888 239.785 23.3488 256.565 23.0088C269.475 22.7488 269.755 22.7987 278.895 27.3087C285.065 30.3487 289.815 33.7587 293.115 37.5187C303.015 48.7587 308.735 66.1687 307.235 80.4887C306.475 87.7687 301.495 100.919 299.575 100.719C299.035 100.659 295.635 98.4687 291.995 95.8487ZM173.265 72.0687C168.415 67.7287 168.225 61.9187 168.705 50.8087C168.975 44.6087 172.595 26.3087 184.625 14.1887C194.945 3.80875 199.595 0.868744 205.925 2.35874C211.845 3.76874 213.255 6.11874 213.255 14.6087C213.255 20.3487 212.115 25.8488 208.975 35.2288C202.925 53.3288 195.235 66.0287 186.375 72.5587C181.335 76.2787 177.815 76.1487 173.265 72.0687Z" fill="#ECF9F5" stroke="#fff" stroke-width="2"/>
</svg>
