<svg xmlns="http://www.w3.org/2000/svg" version="1.1" xmlns:xlink="http://www.w3.org/1999/xlink" width="24" height="24"><svg width="24" height="24" viewBox="0 0 24 24" fill="none" xmlns="http://www.w3.org/2000/svg">
<rect width="24" height="24" fill="#ECF9F5"></rect>
<path d="M22.4565 17.8391C22.2377 17.7329 21.6178 18.5243 21.4832 18.643C21.0764 19.0023 20.5814 19.3317 20.0225 19.3643C18.7299 19.4396 18.2502 18.0394 17.8906 17.0696C17.0464 14.8095 15.231 12.5203 12.5243 13.8231C11.3836 14.3722 10.6603 15.4552 10.0223 16.5031C9.61754 17.1668 8.99207 18.6361 8.07153 18.6979C6.90247 18.7763 6.19989 17.6325 6.31028 16.5742C6.43524 15.375 7.37798 14.5106 8.2277 13.7553C10.0119 12.1697 11.8668 10.9028 12.4305 8.45393C13.0067 5.94851 11.805 3.28027 9.27809 2.46976C8.34293 2.17019 6.78446 1.33922 5.27728 3.02894C2.70033 5.9169 4.88642 5.63226 5.66189 5.60589C8.26868 5.51702 9.37594 6.00749 9.00938 7.38346C8.89071 7.82776 8.62618 8.28284 8.36586 8.5994C8.19922 8.816 7.47516 9.49768 7.15446 9.77643C6.42345 10.412 5.68275 11.0403 5.01001 11.7383C3.75838 13.0361 2.83158 14.6079 2.77119 16.452C2.65455 19.9932 6.4297 23.4141 9.88692 21.4015C11.519 20.4514 12.1021 18.6218 13.0081 17.0838C13.3858 16.442 14.0848 15.6072 14.8749 16.2552C15.5302 16.796 15.8649 17.7155 16.2633 18.4413C17.027 19.8318 18.3356 21.106 20.0739 20.7593C20.9083 20.5927 21.6088 20.0325 22.0538 19.3202C22.1663 19.1397 22.8015 18.0005 22.4565 17.8391Z" fill="#F6D43C" stroke="#002318" stroke-width="0.5"></path>
</svg><style>@media (prefers-color-scheme: light) { :root { filter: none; } }
@media (prefers-color-scheme: dark) { :root { filter: none; } }
</style></svg>